# xmcd CD database file
#
# Track frame offsets:
#	150
#	1756
#	21965
#	44519
#	56344
#	80177
#	105086
#	128806
#	159283
#	177274
#	206138
#	232399
#
# Disc length: 3424 seconds
#
# Revision: 1
# Processed by: cddbd v1.5.1PL0 Copyright (c) Steve Scherf et al.
# Submitted via: CDex 1.50beta9
#
DISCID=970d5e0c
DTITLE=CHEMISTRY - The Way We Are
DYEAR=2001
DGENRE=JPop
TTITLE0=Intro-lude The Way We Are
TTITLE1=合鍵
TTITLE2=PIECES OF DREAM
TTITLE3=愛しすぎて
TTITLE4=BROTHERHOOD - KAWABATA and DABO -
TTITLE5=Point of No Return
TTITLE6=C'EST LA VIE
TTITLE7=You Go Your Way (Album Version)
TTITLE8=Rewind
TTITLE9=君をさがしてた -The Wedding Song-
TTITLE10=星たちの距離 - 堂珍嘉邦 and KEIKO LEE
TTITLE11=Motherland
EXTD=YEAR: 2001
EXTT0=
EXTT1=
EXTT2=
EXTT3=
EXTT4=
EXTT5=
EXTT6=
EXTT7=
EXTT8=
EXTT9=
EXTT10=
EXTT11=
PLAYORDER=
